<?xml version="1.0" encoding="utf-8"?>
<!-- Generator: Adobe Illustrator 17.0.1, SVG Export Plug-In . SVG Version: 6.00 Build 0)  -->
<!DOCTYPE svg PUBLIC "-//W3C//DTD SVG 1.1//EN" "http://www.w3.org/Graphics/SVG/1.1/DTD/svg11.dtd">
<svg version="1.1" id="Layer_1" xmlns="http://www.w3.org/2000/svg" xmlns:xlink="http://www.w3.org/1999/xlink" x="0px" y="0px"
	 width="500px" height="333.333px" viewBox="0 0 500 333.333" enable-background="new 0 0 500 333.333" xml:space="preserve">
<polygon fill="#FFFFFF" points="0.166,-21.834 501.756,-21.834 501.756,269.348 0.166,269.348 "/>
<g>
	<g>
		<g>
			<defs>
				<rect id="SVGID_1_" x="0" y="-22" width="501.756" height="291.348"/>
			</defs>
			<clipPath id="SVGID_2_">
				<use xlink:href="#SVGID_1_"  overflow="visible"/>
			</clipPath>
			<polygon clip-path="url(#SVGID_2_)" fill="#FFFFFF" points="82.933,24.536 486.632,24.536 486.632,178.437 82.933,178.437 			"/>
		</g>
	</g>
</g>
<g>
	<g>
		<g>
			<defs>
				<rect id="SVGID_3_" x="0" y="-22" width="501.756" height="291.348"/>
			</defs>
			<clipPath id="SVGID_4_">
				<use xlink:href="#SVGID_3_"  overflow="visible"/>
			</clipPath>
			
				<line clip-path="url(#SVGID_4_)" fill="none" stroke="#898989" stroke-width="0.48" stroke-linejoin="round" stroke-miterlimit="10" x1="82.933" y1="178.437" x2="82.933" y2="24.536"/>
		</g>
	</g>
</g>
<g>
	<g>
		<g>
			<defs>
				<rect id="SVGID_5_" x="0" y="-22" width="501.756" height="291.348"/>
			</defs>
			<clipPath id="SVGID_6_">
				<use xlink:href="#SVGID_5_"  overflow="visible"/>
			</clipPath>
			
				<path clip-path="url(#SVGID_6_)" fill="none" stroke="#898989" stroke-width="0.48" stroke-linejoin="round" stroke-miterlimit="10" d="
				M78.446,178.437h4.487 M78.446,139.878h4.487 M78.446,101.486h4.487 M78.446,62.928h4.487 M78.446,24.536h4.487"/>
		</g>
	</g>
</g>
<g>
	<g>
		<g>
			<defs>
				<rect id="SVGID_7_" x="0" y="-22" width="501.756" height="291.348"/>
			</defs>
			<clipPath id="SVGID_8_">
				<use xlink:href="#SVGID_7_"  overflow="visible"/>
			</clipPath>
			
				<line clip-path="url(#SVGID_8_)" fill="none" stroke="#898989" stroke-width="0.48" stroke-linejoin="round" stroke-miterlimit="10" x1="82.933" y1="178.437" x2="486.632" y2="178.437"/>
		</g>
	</g>
</g>
<g>
	<g>
		<g>
			<defs>
				<rect id="SVGID_9_" x="0" y="-22" width="501.756" height="291.348"/>
			</defs>
			<clipPath id="SVGID_10_">
				<use xlink:href="#SVGID_9_"  overflow="visible"/>
			</clipPath>
			
				<path clip-path="url(#SVGID_10_)" fill="none" stroke="#898989" stroke-width="0.48" stroke-linejoin="round" stroke-miterlimit="10" d="
				M82.933,178.437v4.321 M163.706,178.437v4.321 M244.313,178.437v4.321 M325.086,178.437v4.321 M405.859,178.437v4.321
				 M486.632,178.437v4.321"/>
		</g>
	</g>
</g>
<g>
	<g>
		<g>
			<defs>
				<rect id="SVGID_11_" x="82.767" y="24.37" width="404.696" height="154.898"/>
			</defs>
			<clipPath id="SVGID_12_">
				<use xlink:href="#SVGID_11_"  overflow="visible"/>
			</clipPath>
			
				<polyline clip-path="url(#SVGID_12_)" fill="none" stroke="#5089BC" stroke-width="1.44" stroke-linecap="round" stroke-linejoin="round" stroke-miterlimit="10" points="
				123.32,178.437 203.927,178.437 284.7,171.789 365.472,147.524 446.245,143.535 			"/>
		</g>
	</g>
</g>
<g>
	<g>
		<g>
			<defs>
				<rect id="SVGID_13_" x="0" y="-22" width="501.756" height="291.348"/>
			</defs>
			<clipPath id="SVGID_14_">
				<use xlink:href="#SVGID_13_"  overflow="visible"/>
			</clipPath>
			<polygon clip-path="url(#SVGID_14_)" fill="#5089BC" points="123.246,174.863 126.736,178.354 123.246,181.844 119.756,178.354 
							"/>
		</g>
	</g>
	<g>
		<g>
			<defs>
				<rect id="SVGID_15_" x="0" y="-22" width="501.756" height="291.348"/>
			</defs>
			<clipPath id="SVGID_16_">
				<use xlink:href="#SVGID_15_"  overflow="visible"/>
			</clipPath>
			
				<polygon clip-path="url(#SVGID_16_)" fill="none" stroke="#5089BC" stroke-width="0.48" stroke-linejoin="round" stroke-miterlimit="10" points="
				123.246,174.863 126.736,178.354 123.246,181.844 119.756,178.354 			"/>
		</g>
	</g>
	<g>
		<g>
			<defs>
				<rect id="SVGID_17_" x="0" y="-22" width="501.756" height="291.348"/>
			</defs>
			<clipPath id="SVGID_18_">
				<use xlink:href="#SVGID_17_"  overflow="visible"/>
			</clipPath>
			<polygon clip-path="url(#SVGID_18_)" fill="#5089BC" points="203.853,174.863 207.343,178.354 203.853,181.844 200.363,178.354 
							"/>
		</g>
	</g>
	<g>
		<g>
			<defs>
				<rect id="SVGID_19_" x="0" y="-22" width="501.756" height="291.348"/>
			</defs>
			<clipPath id="SVGID_20_">
				<use xlink:href="#SVGID_19_"  overflow="visible"/>
			</clipPath>
			
				<polygon clip-path="url(#SVGID_20_)" fill="none" stroke="#5089BC" stroke-width="0.48" stroke-linejoin="round" stroke-miterlimit="10" points="
				203.853,174.863 207.343,178.354 203.853,181.844 200.363,178.354 			"/>
		</g>
	</g>
	<g>
		<g>
			<defs>
				<rect id="SVGID_21_" x="0" y="-22" width="501.756" height="291.348"/>
			</defs>
			<clipPath id="SVGID_22_">
				<use xlink:href="#SVGID_21_"  overflow="visible"/>
			</clipPath>
			<polygon clip-path="url(#SVGID_22_)" fill="#5089BC" points="284.626,168.215 288.116,171.706 284.626,175.196 281.136,171.706 
							"/>
		</g>
	</g>
	<g>
		<g>
			<defs>
				<rect id="SVGID_23_" x="0" y="-22" width="501.756" height="291.348"/>
			</defs>
			<clipPath id="SVGID_24_">
				<use xlink:href="#SVGID_23_"  overflow="visible"/>
			</clipPath>
			
				<polygon clip-path="url(#SVGID_24_)" fill="none" stroke="#5089BC" stroke-width="0.48" stroke-linejoin="round" stroke-miterlimit="10" points="
				284.626,168.215 288.116,171.706 284.626,175.196 281.136,171.706 			"/>
		</g>
	</g>
	<g>
		<g>
			<defs>
				<rect id="SVGID_25_" x="0" y="-22" width="501.756" height="291.348"/>
			</defs>
			<clipPath id="SVGID_26_">
				<use xlink:href="#SVGID_25_"  overflow="visible"/>
			</clipPath>
			<polygon clip-path="url(#SVGID_26_)" fill="#5089BC" points="365.399,143.95 368.889,147.44 365.399,150.931 361.908,147.44 			
				"/>
		</g>
	</g>
	<g>
		<g>
			<defs>
				<rect id="SVGID_27_" x="0" y="-22" width="501.756" height="291.348"/>
			</defs>
			<clipPath id="SVGID_28_">
				<use xlink:href="#SVGID_27_"  overflow="visible"/>
			</clipPath>
			
				<polygon clip-path="url(#SVGID_28_)" fill="none" stroke="#5089BC" stroke-width="0.48" stroke-linejoin="round" stroke-miterlimit="10" points="
				365.399,143.95 368.889,147.44 365.399,150.931 361.908,147.44 			"/>
		</g>
	</g>
	<g>
		<g>
			<defs>
				<rect id="SVGID_29_" x="0" y="-22" width="501.756" height="291.348"/>
			</defs>
			<clipPath id="SVGID_30_">
				<use xlink:href="#SVGID_29_"  overflow="visible"/>
			</clipPath>
			<polygon clip-path="url(#SVGID_30_)" fill="#5089BC" points="446.172,139.961 449.662,143.452 446.172,146.942 442.681,143.452 
							"/>
		</g>
	</g>
	<g>
		<g>
			<defs>
				<rect id="SVGID_31_" x="0" y="-22" width="501.756" height="291.348"/>
			</defs>
			<clipPath id="SVGID_32_">
				<use xlink:href="#SVGID_31_"  overflow="visible"/>
			</clipPath>
			
				<polygon clip-path="url(#SVGID_32_)" fill="none" stroke="#5089BC" stroke-width="0.48" stroke-linejoin="round" stroke-miterlimit="10" points="
				446.172,139.961 449.662,143.452 446.172,146.942 442.681,143.452 			"/>
		</g>
	</g>
</g>
<g>
	<g>
		<g>
			<defs>
				<rect id="SVGID_33_" x="82.767" y="24.37" width="404.696" height="154.898"/>
			</defs>
			<clipPath id="SVGID_34_">
				<use xlink:href="#SVGID_33_"  overflow="visible"/>
			</clipPath>
			
				<polyline clip-path="url(#SVGID_34_)" fill="none" stroke="#D26E2A" stroke-width="1.44" stroke-linecap="round" stroke-linejoin="round" stroke-miterlimit="10" points="
				123.32,96.5 203.927,76.889 284.7,97.498 365.472,178.437 446.245,178.437 			"/>
		</g>
	</g>
</g>
<g>
	<g>
		<g>
			<defs>
				<rect id="SVGID_35_" x="0" y="-22" width="501.756" height="291.348"/>
			</defs>
			<clipPath id="SVGID_36_">
				<use xlink:href="#SVGID_35_"  overflow="visible"/>
			</clipPath>
			<polygon clip-path="url(#SVGID_36_)" fill="#D26E2A" points="121.085,94.257 125.24,94.257 125.24,98.412 121.085,98.412 			"/>
		</g>
	</g>
	<g>
		<g>
			<defs>
				<rect id="SVGID_37_" x="0" y="-22" width="501.756" height="291.348"/>
			</defs>
			<clipPath id="SVGID_38_">
				<use xlink:href="#SVGID_37_"  overflow="visible"/>
			</clipPath>
			
				<polygon clip-path="url(#SVGID_38_)" fill="none" stroke="#D26E2A" stroke-width="0.48" stroke-linejoin="round" stroke-miterlimit="10" points="
				121.085,94.257 125.24,94.257 125.24,98.412 121.085,98.412 			"/>
		</g>
	</g>
	<g>
		<g>
			<defs>
				<rect id="SVGID_39_" x="0" y="-22" width="501.756" height="291.348"/>
			</defs>
			<clipPath id="SVGID_40_">
				<use xlink:href="#SVGID_39_"  overflow="visible"/>
			</clipPath>
			<polygon clip-path="url(#SVGID_40_)" fill="#D26E2A" points="201.692,74.645 205.847,74.645 205.847,78.8 201.692,78.8 			"/>
		</g>
	</g>
	<g>
		<g>
			<defs>
				<rect id="SVGID_41_" x="0" y="-22" width="501.756" height="291.348"/>
			</defs>
			<clipPath id="SVGID_42_">
				<use xlink:href="#SVGID_41_"  overflow="visible"/>
			</clipPath>
			
				<polygon clip-path="url(#SVGID_42_)" fill="none" stroke="#D26E2A" stroke-width="0.48" stroke-linejoin="round" stroke-miterlimit="10" points="
				201.692,74.645 205.847,74.645 205.847,78.8 201.692,78.8 			"/>
		</g>
	</g>
	<g>
		<g>
			<defs>
				<rect id="SVGID_43_" x="0" y="-22" width="501.756" height="291.348"/>
			</defs>
			<clipPath id="SVGID_44_">
				<use xlink:href="#SVGID_43_"  overflow="visible"/>
			</clipPath>
			<polygon clip-path="url(#SVGID_44_)" fill="#D26E2A" points="282.465,95.254 286.62,95.254 286.62,99.409 282.465,99.409 			"/>
		</g>
	</g>
	<g>
		<g>
			<defs>
				<rect id="SVGID_45_" x="0" y="-22" width="501.756" height="291.348"/>
			</defs>
			<clipPath id="SVGID_46_">
				<use xlink:href="#SVGID_45_"  overflow="visible"/>
			</clipPath>
			
				<polygon clip-path="url(#SVGID_46_)" fill="none" stroke="#D26E2A" stroke-width="0.48" stroke-linejoin="round" stroke-miterlimit="10" points="
				282.465,95.254 286.62,95.254 286.62,99.409 282.465,99.409 			"/>
		</g>
	</g>
	<g>
		<g>
			<defs>
				<rect id="SVGID_47_" x="0" y="-22" width="501.756" height="291.348"/>
			</defs>
			<clipPath id="SVGID_48_">
				<use xlink:href="#SVGID_47_"  overflow="visible"/>
			</clipPath>
			<polygon clip-path="url(#SVGID_48_)" fill="#D26E2A" points="363.238,176.193 367.393,176.193 367.393,180.348 363.238,180.348 
							"/>
		</g>
	</g>
	<g>
		<g>
			<defs>
				<rect id="SVGID_49_" x="0" y="-22" width="501.756" height="291.348"/>
			</defs>
			<clipPath id="SVGID_50_">
				<use xlink:href="#SVGID_49_"  overflow="visible"/>
			</clipPath>
			
				<polygon clip-path="url(#SVGID_50_)" fill="none" stroke="#D26E2A" stroke-width="0.48" stroke-linejoin="round" stroke-miterlimit="10" points="
				363.238,176.193 367.393,176.193 367.393,180.348 363.238,180.348 			"/>
		</g>
	</g>
	<g>
		<g>
			<defs>
				<rect id="SVGID_51_" x="0" y="-22" width="501.756" height="291.348"/>
			</defs>
			<clipPath id="SVGID_52_">
				<use xlink:href="#SVGID_51_"  overflow="visible"/>
			</clipPath>
			<polygon clip-path="url(#SVGID_52_)" fill="#D26E2A" points="444.011,176.193 448.166,176.193 448.166,180.348 444.011,180.348 
							"/>
		</g>
	</g>
	<g>
		<g>
			<defs>
				<rect id="SVGID_53_" x="0" y="-22" width="501.756" height="291.348"/>
			</defs>
			<clipPath id="SVGID_54_">
				<use xlink:href="#SVGID_53_"  overflow="visible"/>
			</clipPath>
			
				<polygon clip-path="url(#SVGID_54_)" fill="none" stroke="#D26E2A" stroke-width="0.48" stroke-linejoin="round" stroke-miterlimit="10" points="
				444.011,176.193 448.166,176.193 448.166,180.348 444.011,180.348 			"/>
		</g>
	</g>
</g>
<g>
	<g>
		<g>
			<defs>
				<rect id="SVGID_55_" x="82.767" y="24.37" width="404.696" height="154.898"/>
			</defs>
			<clipPath id="SVGID_56_">
				<use xlink:href="#SVGID_55_"  overflow="visible"/>
			</clipPath>
			
				<polyline clip-path="url(#SVGID_56_)" fill="none" stroke="#E2AA00" stroke-width="1.44" stroke-linecap="round" stroke-linejoin="round" stroke-miterlimit="10" points="
				123.32,178.437 203.927,98.993 284.7,39.328 365.472,178.437 446.245,178.437 			"/>
		</g>
	</g>
</g>
<g>
	<g>
		<g>
			<defs>
				<rect id="SVGID_57_" x="0" y="-22" width="501.756" height="291.348"/>
			</defs>
			<clipPath id="SVGID_58_">
				<use xlink:href="#SVGID_57_"  overflow="visible"/>
			</clipPath>
			<path clip-path="url(#SVGID_58_)" fill="#E2AA00" d="M126.736,181.844l-6.98-6.98 M119.756,181.844l6.98-6.98"/>
		</g>
	</g>
	<g>
		<g>
			<defs>
				<rect id="SVGID_59_" x="0" y="-22" width="501.756" height="291.348"/>
			</defs>
			<clipPath id="SVGID_60_">
				<use xlink:href="#SVGID_59_"  overflow="visible"/>
			</clipPath>
			
				<path clip-path="url(#SVGID_60_)" fill="none" stroke="#E2AA00" stroke-width="0.48" stroke-linejoin="round" stroke-miterlimit="10" d="
				M126.736,181.844l-6.98-6.98 M119.756,181.844l6.98-6.98"/>
		</g>
	</g>
	<g>
		<g>
			<defs>
				<rect id="SVGID_61_" x="0" y="-22" width="501.756" height="291.348"/>
			</defs>
			<clipPath id="SVGID_62_">
				<use xlink:href="#SVGID_61_"  overflow="visible"/>
			</clipPath>
			<path clip-path="url(#SVGID_62_)" fill="#E2AA00" d="M207.343,102.401l-6.98-6.98 M200.363,102.401l6.98-6.98"/>
		</g>
	</g>
	<g>
		<g>
			<defs>
				<rect id="SVGID_63_" x="0" y="-22" width="501.756" height="291.348"/>
			</defs>
			<clipPath id="SVGID_64_">
				<use xlink:href="#SVGID_63_"  overflow="visible"/>
			</clipPath>
			
				<path clip-path="url(#SVGID_64_)" fill="none" stroke="#E2AA00" stroke-width="0.48" stroke-linejoin="round" stroke-miterlimit="10" d="
				M207.343,102.401l-6.98-6.98 M200.363,102.401l6.98-6.98"/>
		</g>
	</g>
	<g>
		<g>
			<defs>
				<rect id="SVGID_65_" x="0" y="-22" width="501.756" height="291.348"/>
			</defs>
			<clipPath id="SVGID_66_">
				<use xlink:href="#SVGID_65_"  overflow="visible"/>
			</clipPath>
			<path clip-path="url(#SVGID_66_)" fill="#E2AA00" d="M288.116,42.735l-6.98-6.98 M281.136,42.735l6.98-6.98"/>
		</g>
	</g>
	<g>
		<g>
			<defs>
				<rect id="SVGID_67_" x="0" y="-22" width="501.756" height="291.348"/>
			</defs>
			<clipPath id="SVGID_68_">
				<use xlink:href="#SVGID_67_"  overflow="visible"/>
			</clipPath>
			
				<path clip-path="url(#SVGID_68_)" fill="none" stroke="#E2AA00" stroke-width="0.48" stroke-linejoin="round" stroke-miterlimit="10" d="
				M288.116,42.735l-6.98-6.98 M281.136,42.735l6.98-6.98"/>
		</g>
	</g>
	<g>
		<g>
			<defs>
				<rect id="SVGID_69_" x="0" y="-22" width="501.756" height="291.348"/>
			</defs>
			<clipPath id="SVGID_70_">
				<use xlink:href="#SVGID_69_"  overflow="visible"/>
			</clipPath>
			<path clip-path="url(#SVGID_70_)" fill="#E2AA00" d="M368.889,181.844l-6.98-6.98 M361.908,181.844l6.98-6.98"/>
		</g>
	</g>
	<g>
		<g>
			<defs>
				<rect id="SVGID_71_" x="0" y="-22" width="501.756" height="291.348"/>
			</defs>
			<clipPath id="SVGID_72_">
				<use xlink:href="#SVGID_71_"  overflow="visible"/>
			</clipPath>
			
				<path clip-path="url(#SVGID_72_)" fill="none" stroke="#E2AA00" stroke-width="0.48" stroke-linejoin="round" stroke-miterlimit="10" d="
				M368.889,181.844l-6.98-6.98 M361.908,181.844l6.98-6.98"/>
		</g>
	</g>
	<g>
		<g>
			<defs>
				<rect id="SVGID_73_" x="0" y="-22" width="501.756" height="291.348"/>
			</defs>
			<clipPath id="SVGID_74_">
				<use xlink:href="#SVGID_73_"  overflow="visible"/>
			</clipPath>
			<path clip-path="url(#SVGID_74_)" fill="#E2AA00" d="M449.662,181.844l-6.98-6.98 M442.681,181.844l6.98-6.98"/>
		</g>
	</g>
	<g>
		<g>
			<defs>
				<rect id="SVGID_75_" x="0" y="-22" width="501.756" height="291.348"/>
			</defs>
			<clipPath id="SVGID_76_">
				<use xlink:href="#SVGID_75_"  overflow="visible"/>
			</clipPath>
			
				<path clip-path="url(#SVGID_76_)" fill="none" stroke="#E2AA00" stroke-width="0.48" stroke-linejoin="round" stroke-miterlimit="10" d="
				M449.662,181.844l-6.98-6.98 M442.681,181.844l6.98-6.98"/>
		</g>
	</g>
</g>
<g>
	<g>
		<g>
			<defs>
				<rect id="SVGID_77_" x="82.767" y="24.37" width="404.696" height="154.898"/>
			</defs>
			<clipPath id="SVGID_78_">
				<use xlink:href="#SVGID_77_"  overflow="visible"/>
			</clipPath>
			
				<polyline clip-path="url(#SVGID_78_)" fill="none" stroke="#3B64AD" stroke-width="1.44" stroke-linecap="round" stroke-linejoin="round" stroke-miterlimit="10" points="
				123.32,178.437 203.927,109.132 284.7,117.94 365.472,154.67 446.245,122.594 			"/>
		</g>
	</g>
</g>
<g>
	<g>
		<g>
			<defs>
				<rect id="SVGID_79_" x="0" y="-22" width="501.756" height="291.348"/>
			</defs>
			<clipPath id="SVGID_80_">
				<use xlink:href="#SVGID_79_"  overflow="visible"/>
			</clipPath>
			<path clip-path="url(#SVGID_80_)" fill="#3B64AD" d="M126.736,181.844l-6.98-6.98 M123.246,174.863v6.98 M119.756,181.844
				l6.98-6.98"/>
		</g>
	</g>
	<g>
		<g>
			<defs>
				<rect id="SVGID_81_" x="0" y="-22" width="501.756" height="291.348"/>
			</defs>
			<clipPath id="SVGID_82_">
				<use xlink:href="#SVGID_81_"  overflow="visible"/>
			</clipPath>
			
				<path clip-path="url(#SVGID_82_)" fill="none" stroke="#3B64AD" stroke-width="0.48" stroke-linejoin="round" stroke-miterlimit="10" d="
				M126.736,181.844l-6.98-6.98 M123.246,174.863v6.98 M119.756,181.844l6.98-6.98"/>
		</g>
	</g>
	<g>
		<g>
			<defs>
				<rect id="SVGID_83_" x="0" y="-22" width="501.756" height="291.348"/>
			</defs>
			<clipPath id="SVGID_84_">
				<use xlink:href="#SVGID_83_"  overflow="visible"/>
			</clipPath>
			<path clip-path="url(#SVGID_84_)" fill="#3B64AD" d="M207.343,112.539l-6.98-6.98 M203.853,105.558v6.98 M200.363,112.539
				l6.98-6.98"/>
		</g>
	</g>
	<g>
		<g>
			<defs>
				<rect id="SVGID_85_" x="0" y="-22" width="501.756" height="291.348"/>
			</defs>
			<clipPath id="SVGID_86_">
				<use xlink:href="#SVGID_85_"  overflow="visible"/>
			</clipPath>
			
				<path clip-path="url(#SVGID_86_)" fill="none" stroke="#3B64AD" stroke-width="0.48" stroke-linejoin="round" stroke-miterlimit="10" d="
				M207.343,112.539l-6.98-6.98 M203.853,105.558v6.98 M200.363,112.539l6.98-6.98"/>
		</g>
	</g>
	<g>
		<g>
			<defs>
				<rect id="SVGID_87_" x="0" y="-22" width="501.756" height="291.348"/>
			</defs>
			<clipPath id="SVGID_88_">
				<use xlink:href="#SVGID_87_"  overflow="visible"/>
			</clipPath>
			<path clip-path="url(#SVGID_88_)" fill="#3B64AD" d="M288.116,121.347l-6.98-6.98 M284.626,114.367v6.98 M281.136,121.347
				l6.98-6.98"/>
		</g>
	</g>
	<g>
		<g>
			<defs>
				<rect id="SVGID_89_" x="0" y="-22" width="501.756" height="291.348"/>
			</defs>
			<clipPath id="SVGID_90_">
				<use xlink:href="#SVGID_89_"  overflow="visible"/>
			</clipPath>
			
				<path clip-path="url(#SVGID_90_)" fill="none" stroke="#3B64AD" stroke-width="0.48" stroke-linejoin="round" stroke-miterlimit="10" d="
				M288.116,121.347l-6.98-6.98 M284.626,114.367v6.98 M281.136,121.347l6.98-6.98"/>
		</g>
	</g>
	<g>
		<g>
			<defs>
				<rect id="SVGID_91_" x="0" y="-22" width="501.756" height="291.348"/>
			</defs>
			<clipPath id="SVGID_92_">
				<use xlink:href="#SVGID_91_"  overflow="visible"/>
			</clipPath>
			<path clip-path="url(#SVGID_92_)" fill="#3B64AD" d="M368.889,158.077l-6.98-6.98 M365.399,151.097v6.98 M361.908,158.077
				l6.98-6.98"/>
		</g>
	</g>
	<g>
		<g>
			<defs>
				<rect id="SVGID_93_" x="0" y="-22" width="501.756" height="291.348"/>
			</defs>
			<clipPath id="SVGID_94_">
				<use xlink:href="#SVGID_93_"  overflow="visible"/>
			</clipPath>
			
				<path clip-path="url(#SVGID_94_)" fill="none" stroke="#3B64AD" stroke-width="0.48" stroke-linejoin="round" stroke-miterlimit="10" d="
				M368.889,158.077l-6.98-6.98 M365.399,151.097v6.98 M361.908,158.077l6.98-6.98"/>
		</g>
	</g>
	<g>
		<g>
			<defs>
				<rect id="SVGID_95_" x="0" y="-22" width="501.756" height="291.348"/>
			</defs>
			<clipPath id="SVGID_96_">
				<use xlink:href="#SVGID_95_"  overflow="visible"/>
			</clipPath>
			<path clip-path="url(#SVGID_96_)" fill="#3B64AD" d="M449.662,126.001l-6.98-6.98 M446.172,119.02V126 M442.681,126.001
				l6.98-6.98"/>
		</g>
	</g>
	<g>
		<g>
			<defs>
				<rect id="SVGID_97_" x="0" y="-22" width="501.756" height="291.348"/>
			</defs>
			<clipPath id="SVGID_98_">
				<use xlink:href="#SVGID_97_"  overflow="visible"/>
			</clipPath>
			
				<path clip-path="url(#SVGID_98_)" fill="none" stroke="#3B64AD" stroke-width="0.48" stroke-linejoin="round" stroke-miterlimit="10" d="
				M449.662,126.001l-6.98-6.98 M446.172,119.02V126 M442.681,126.001l6.98-6.98"/>
		</g>
	</g>
</g>
<g>
	<g>
		<g>
			<defs>
				<rect id="SVGID_99_" x="82.767" y="24.37" width="404.696" height="154.898"/>
			</defs>
			<clipPath id="SVGID_100_">
				<use xlink:href="#SVGID_99_"  overflow="visible"/>
			</clipPath>
			
				<polyline clip-path="url(#SVGID_100_)" fill="none" stroke="#62993E" stroke-width="1.44" stroke-linecap="round" stroke-linejoin="round" stroke-miterlimit="10" points="
				123.32,178.437 203.927,178.437 284.7,174.115 365.472,154.67 446.245,155.667 			"/>
		</g>
	</g>
</g>
<g>
	<g>
		<g>
			<defs>
				<rect id="SVGID_101_" x="0" y="-22" width="501.756" height="291.348"/>
			</defs>
			<clipPath id="SVGID_102_">
				<use xlink:href="#SVGID_101_"  overflow="visible"/>
			</clipPath>
			<path clip-path="url(#SVGID_102_)" fill="#62993E" d="M126.736,178.354c0,1.928-1.563,3.49-3.49,3.49s-3.49-1.563-3.49-3.49
				c0-1.928,1.563-3.49,3.49-3.49S126.736,176.426,126.736,178.354L126.736,178.354z"/>
		</g>
	</g>
	<g>
		<g>
			<defs>
				<rect id="SVGID_103_" x="0" y="-22" width="501.756" height="291.348"/>
			</defs>
			<clipPath id="SVGID_104_">
				<use xlink:href="#SVGID_103_"  overflow="visible"/>
			</clipPath>
			
				<path clip-path="url(#SVGID_104_)" fill="none" stroke="#62993E" stroke-width="0.48" stroke-linejoin="round" stroke-miterlimit="10" d="
				M126.736,178.354c0,1.928-1.563,3.49-3.49,3.49s-3.49-1.563-3.49-3.49c0-1.928,1.563-3.49,3.49-3.49
				S126.736,176.426,126.736,178.354L126.736,178.354z"/>
		</g>
	</g>
	<g>
		<g>
			<defs>
				<rect id="SVGID_105_" x="0" y="-22" width="501.756" height="291.348"/>
			</defs>
			<clipPath id="SVGID_106_">
				<use xlink:href="#SVGID_105_"  overflow="visible"/>
			</clipPath>
			<path clip-path="url(#SVGID_106_)" fill="#62993E" d="M207.343,178.354c0,1.928-1.563,3.49-3.49,3.49s-3.49-1.563-3.49-3.49
				c0-1.928,1.563-3.49,3.49-3.49S207.343,176.426,207.343,178.354L207.343,178.354z"/>
		</g>
	</g>
	<g>
		<g>
			<defs>
				<rect id="SVGID_107_" x="0" y="-22" width="501.756" height="291.348"/>
			</defs>
			<clipPath id="SVGID_108_">
				<use xlink:href="#SVGID_107_"  overflow="visible"/>
			</clipPath>
			
				<path clip-path="url(#SVGID_108_)" fill="none" stroke="#62993E" stroke-width="0.48" stroke-linejoin="round" stroke-miterlimit="10" d="
				M207.343,178.354c0,1.928-1.563,3.49-3.49,3.49s-3.49-1.563-3.49-3.49c0-1.928,1.563-3.49,3.49-3.49
				S207.343,176.426,207.343,178.354L207.343,178.354z"/>
		</g>
	</g>
	<g>
		<g>
			<defs>
				<rect id="SVGID_109_" x="0" y="-22" width="501.756" height="291.348"/>
			</defs>
			<clipPath id="SVGID_110_">
				<use xlink:href="#SVGID_109_"  overflow="visible"/>
			</clipPath>
			<path clip-path="url(#SVGID_110_)" fill="#62993E" d="M288.116,174.032c0,1.928-1.563,3.49-3.49,3.49
				c-1.928,0-3.49-1.563-3.49-3.49c0-1.928,1.563-3.49,3.49-3.49C286.553,170.542,288.116,172.105,288.116,174.032L288.116,174.032z
				"/>
		</g>
	</g>
	<g>
		<g>
			<defs>
				<rect id="SVGID_111_" x="0" y="-22" width="501.756" height="291.348"/>
			</defs>
			<clipPath id="SVGID_112_">
				<use xlink:href="#SVGID_111_"  overflow="visible"/>
			</clipPath>
			
				<path clip-path="url(#SVGID_112_)" fill="none" stroke="#62993E" stroke-width="0.48" stroke-linejoin="round" stroke-miterlimit="10" d="
				M288.116,174.032c0,1.928-1.563,3.49-3.49,3.49c-1.928,0-3.49-1.563-3.49-3.49c0-1.928,1.563-3.49,3.49-3.49
				C286.553,170.542,288.116,172.105,288.116,174.032L288.116,174.032z"/>
		</g>
	</g>
	<g>
		<g>
			<defs>
				<rect id="SVGID_113_" x="0" y="-22" width="501.756" height="291.348"/>
			</defs>
			<clipPath id="SVGID_114_">
				<use xlink:href="#SVGID_113_"  overflow="visible"/>
			</clipPath>
			<path clip-path="url(#SVGID_114_)" fill="#62993E" d="M368.889,154.587c0,1.928-1.563,3.49-3.49,3.49
				c-1.928,0-3.49-1.563-3.49-3.49c0-1.928,1.563-3.49,3.49-3.49C367.326,151.097,368.889,152.659,368.889,154.587L368.889,154.587z
				"/>
		</g>
	</g>
	<g>
		<g>
			<defs>
				<rect id="SVGID_115_" x="0" y="-22" width="501.756" height="291.348"/>
			</defs>
			<clipPath id="SVGID_116_">
				<use xlink:href="#SVGID_115_"  overflow="visible"/>
			</clipPath>
			
				<path clip-path="url(#SVGID_116_)" fill="none" stroke="#62993E" stroke-width="0.48" stroke-linejoin="round" stroke-miterlimit="10" d="
				M368.889,154.587c0,1.928-1.563,3.49-3.49,3.49c-1.928,0-3.49-1.563-3.49-3.49c0-1.928,1.563-3.49,3.49-3.49
				C367.326,151.097,368.889,152.659,368.889,154.587L368.889,154.587z"/>
		</g>
	</g>
	<g>
		<g>
			<defs>
				<rect id="SVGID_117_" x="0" y="-22" width="501.756" height="291.348"/>
			</defs>
			<clipPath id="SVGID_118_">
				<use xlink:href="#SVGID_117_"  overflow="visible"/>
			</clipPath>
			<path clip-path="url(#SVGID_118_)" fill="#62993E" d="M449.662,155.584c0,1.928-1.563,3.49-3.49,3.49
				c-1.928,0-3.49-1.563-3.49-3.49c0-1.928,1.563-3.49,3.49-3.49S449.662,153.657,449.662,155.584L449.662,155.584z"/>
		</g>
	</g>
	<g>
		<g>
			<defs>
				<rect id="SVGID_119_" x="0" y="-22" width="501.756" height="291.348"/>
			</defs>
			<clipPath id="SVGID_120_">
				<use xlink:href="#SVGID_119_"  overflow="visible"/>
			</clipPath>
			
				<path clip-path="url(#SVGID_120_)" fill="none" stroke="#62993E" stroke-width="0.48" stroke-linejoin="round" stroke-miterlimit="10" d="
				M449.662,155.584c0,1.928-1.563,3.49-3.49,3.49c-1.928,0-3.49-1.563-3.49-3.49c0-1.928,1.563-3.49,3.49-3.49
				S449.662,153.657,449.662,155.584L449.662,155.584z"/>
		</g>
	</g>
</g>
<g>
	<g>
		<g>
			<defs>
				<rect id="SVGID_121_" x="82.767" y="24.37" width="404.696" height="154.898"/>
			</defs>
			<clipPath id="SVGID_122_">
				<use xlink:href="#SVGID_121_"  overflow="visible"/>
			</clipPath>
			
				<polyline clip-path="url(#SVGID_122_)" fill="none" stroke="#97B9E0" stroke-width="1.44" stroke-linecap="round" stroke-linejoin="round" stroke-miterlimit="10" points="
				123.32,178.437 203.927,178.437 284.7,178.437 365.472,178.27 446.245,177.439 			"/>
		</g>
	</g>
</g>
<g>
	<g>
		<g>
			<defs>
				<rect id="SVGID_123_" x="0" y="-22" width="501.756" height="291.348"/>
			</defs>
			<clipPath id="SVGID_124_">
				<use xlink:href="#SVGID_123_"  overflow="visible"/>
			</clipPath>
			<path clip-path="url(#SVGID_124_)" fill="#97B9E0" d="M123.246,174.863v6.98 M119.756,178.354h6.98"/>
		</g>
	</g>
	<g>
		<g>
			<defs>
				<rect id="SVGID_125_" x="0" y="-22" width="501.756" height="291.348"/>
			</defs>
			<clipPath id="SVGID_126_">
				<use xlink:href="#SVGID_125_"  overflow="visible"/>
			</clipPath>
			
				<path clip-path="url(#SVGID_126_)" fill="none" stroke="#97B9E0" stroke-width="0.48" stroke-linejoin="round" stroke-miterlimit="10" d="
				M123.246,174.863v6.98 M119.756,178.354h6.98"/>
		</g>
	</g>
	<g>
		<g>
			<defs>
				<rect id="SVGID_127_" x="0" y="-22" width="501.756" height="291.348"/>
			</defs>
			<clipPath id="SVGID_128_">
				<use xlink:href="#SVGID_127_"  overflow="visible"/>
			</clipPath>
			<path clip-path="url(#SVGID_128_)" fill="#97B9E0" d="M203.853,174.863v6.98 M200.363,178.354h6.98"/>
		</g>
	</g>
	<g>
		<g>
			<defs>
				<rect id="SVGID_129_" x="0" y="-22" width="501.756" height="291.348"/>
			</defs>
			<clipPath id="SVGID_130_">
				<use xlink:href="#SVGID_129_"  overflow="visible"/>
			</clipPath>
			
				<path clip-path="url(#SVGID_130_)" fill="none" stroke="#97B9E0" stroke-width="0.48" stroke-linejoin="round" stroke-miterlimit="10" d="
				M203.853,174.863v6.98 M200.363,178.354h6.98"/>
		</g>
	</g>
	<g>
		<g>
			<defs>
				<rect id="SVGID_131_" x="0" y="-22" width="501.756" height="291.348"/>
			</defs>
			<clipPath id="SVGID_132_">
				<use xlink:href="#SVGID_131_"  overflow="visible"/>
			</clipPath>
			<path clip-path="url(#SVGID_132_)" fill="#97B9E0" d="M284.626,174.863v6.98 M281.136,178.354h6.98"/>
		</g>
	</g>
	<g>
		<g>
			<defs>
				<rect id="SVGID_133_" x="0" y="-22" width="501.756" height="291.348"/>
			</defs>
			<clipPath id="SVGID_134_">
				<use xlink:href="#SVGID_133_"  overflow="visible"/>
			</clipPath>
			
				<path clip-path="url(#SVGID_134_)" fill="none" stroke="#97B9E0" stroke-width="0.48" stroke-linejoin="round" stroke-miterlimit="10" d="
				M284.626,174.863v6.98 M281.136,178.354h6.98"/>
		</g>
	</g>
	<g>
		<g>
			<defs>
				<rect id="SVGID_135_" x="0" y="-22" width="501.756" height="291.348"/>
			</defs>
			<clipPath id="SVGID_136_">
				<use xlink:href="#SVGID_135_"  overflow="visible"/>
			</clipPath>
			<path clip-path="url(#SVGID_136_)" fill="#97B9E0" d="M365.399,174.697v6.98 M361.908,178.187h6.98"/>
		</g>
	</g>
	<g>
		<g>
			<defs>
				<rect id="SVGID_137_" x="0" y="-22" width="501.756" height="291.348"/>
			</defs>
			<clipPath id="SVGID_138_">
				<use xlink:href="#SVGID_137_"  overflow="visible"/>
			</clipPath>
			
				<path clip-path="url(#SVGID_138_)" fill="none" stroke="#97B9E0" stroke-width="0.48" stroke-linejoin="round" stroke-miterlimit="10" d="
				M365.399,174.697v6.98 M361.908,178.187h6.98"/>
		</g>
	</g>
	<g>
		<g>
			<defs>
				<rect id="SVGID_139_" x="0" y="-22" width="501.756" height="291.348"/>
			</defs>
			<clipPath id="SVGID_140_">
				<use xlink:href="#SVGID_139_"  overflow="visible"/>
			</clipPath>
			<path clip-path="url(#SVGID_140_)" fill="#97B9E0" d="M446.172,173.866v6.98 M442.681,177.356h6.98"/>
		</g>
	</g>
	<g>
		<g>
			<defs>
				<rect id="SVGID_141_" x="0" y="-22" width="501.756" height="291.348"/>
			</defs>
			<clipPath id="SVGID_142_">
				<use xlink:href="#SVGID_141_"  overflow="visible"/>
			</clipPath>
			
				<path clip-path="url(#SVGID_142_)" fill="none" stroke="#97B9E0" stroke-width="0.48" stroke-linejoin="round" stroke-miterlimit="10" d="
				M446.172,173.866v6.98 M442.681,177.356h6.98"/>
		</g>
	</g>
</g>
<g>
	<g>
		<g>
			<defs>
				<rect id="SVGID_143_" x="0" y="-22" width="501.756" height="291.348"/>
			</defs>
			<clipPath id="SVGID_144_">
				<use xlink:href="#SVGID_143_"  overflow="visible"/>
			</clipPath>
			<g clip-path="url(#SVGID_144_)">
				<text transform="matrix(1 0 0 1 52.4975 182.2905)" font-family="'Calibri'" font-size="13.7946">0.0</text>
			</g>
		</g>
	</g>
</g>
<g>
	<g>
		<g>
			<defs>
				<rect id="SVGID_145_" x="0" y="-22" width="501.756" height="291.348"/>
			</defs>
			<clipPath id="SVGID_146_">
				<use xlink:href="#SVGID_145_"  overflow="visible"/>
			</clipPath>
			<g clip-path="url(#SVGID_146_)">
				<text transform="matrix(1 0 0 1 45.4863 143.8134)" font-family="'Calibri'" font-size="13.7946">5</text>
				<text transform="matrix(1 0 0 1 52.4783 143.8134)" font-family="'Calibri'" font-size="13.7946">0</text>
				<text transform="matrix(1 0 0 1 59.6213 143.8134)" font-family="'Calibri'" font-size="13.7946">.0</text>
			</g>
		</g>
	</g>
</g>
<g>
	<g>
		<g>
			<defs>
				<rect id="SVGID_147_" x="0" y="-22" width="501.756" height="291.348"/>
			</defs>
			<clipPath id="SVGID_148_">
				<use xlink:href="#SVGID_147_"  overflow="visible"/>
			</clipPath>
			<g clip-path="url(#SVGID_148_)">
				<text transform="matrix(1 0 0 1 38.4526 105.3588)" font-family="'Calibri'" font-size="13.7946">1</text>
				<text transform="matrix(1 0 0 1 45.4446 105.3588)" font-family="'Calibri'" font-size="13.7946">0</text>
				<text transform="matrix(1 0 0 1 52.5876 105.3588)" font-family="'Calibri'" font-size="13.7946">0.0</text>
			</g>
		</g>
	</g>
</g>
<g>
	<g>
		<g>
			<defs>
				<rect id="SVGID_149_" x="0" y="-22" width="501.756" height="291.348"/>
			</defs>
			<clipPath id="SVGID_150_">
				<use xlink:href="#SVGID_149_"  overflow="visible"/>
			</clipPath>
			<g clip-path="url(#SVGID_150_)">
				<text transform="matrix(1 0 0 1 38.4526 66.8818)" font-family="'Calibri'" font-size="13.7946">1</text>
				<text transform="matrix(1 0 0 1 45.4446 66.8818)" font-family="'Calibri'" font-size="13.7946">5</text>
				<text transform="matrix(1 0 0 1 52.5876 66.8818)" font-family="'Calibri'" font-size="13.7946">0.0</text>
			</g>
		</g>
	</g>
</g>
<g>
	<g>
		<g>
			<defs>
				<rect id="SVGID_151_" x="0" y="-22" width="501.756" height="291.348"/>
			</defs>
			<clipPath id="SVGID_152_">
				<use xlink:href="#SVGID_151_"  overflow="visible"/>
			</clipPath>
			<g clip-path="url(#SVGID_152_)">
				<text transform="matrix(1 0 0 1 38.4526 28.4375)" font-family="'Calibri'" font-size="13.7946">2</text>
				<text transform="matrix(1 0 0 1 45.4446 28.4375)" font-family="'Calibri'" font-size="13.7946">0</text>
				<text transform="matrix(1 0 0 1 52.5876 28.4375)" font-family="'Calibri'" font-size="13.7946">0.0</text>
			</g>
		</g>
	</g>
</g>
<g>
	<g>
		<g>
			<defs>
				<rect id="SVGID_153_" x="0" y="-22" width="501.756" height="291.348"/>
			</defs>
			<clipPath id="SVGID_154_">
				<use xlink:href="#SVGID_153_"  overflow="visible"/>
			</clipPath>
			<g clip-path="url(#SVGID_154_)">
				
					<text transform="matrix(1.748456e-007 -1 1 1.748456e-007 30.5318 138.7012)" font-family="'Calibri-Bold'" font-size="13.7946">U</text>
				
					<text transform="matrix(1.748456e-007 -1 1 1.748456e-007 30.5318 129.7227)" font-family="'Calibri-Bold'" font-size="13.7946">G</text>
				<text transform="matrix(1.748456e-007 -1 1 1.748456e-007 30.5318 120.92)" font-family="'Calibri-Bold'" font-size="13.7946">X</text>
				
					<text transform="matrix(1.748456e-007 -1 1 1.748456e-007 30.5318 113.2813)" font-family="'Calibri-Bold'" font-size="13.7946"> </text>
				
					<text transform="matrix(1.748456e-007 -1 1 1.748456e-007 30.5318 110.1348)" font-family="'Calibri-Bold'" font-size="13.7946">M</text>
				<text transform="matrix(1.748456e-007 -1 1 1.748456e-007 30.5318 98.0079)" font-family="'Calibri-Bold'" font-size="13.7946">illi</text>
				<text transform="matrix(1.748456e-007 -1 1 1.748456e-007 30.5318 84.6778)" font-family="'Calibri-Bold'" font-size="13.7946">o</text>
				<text transform="matrix(1.748456e-007 -1 1 1.748456e-007 30.5318 77.2071)" font-family="'Calibri-Bold'" font-size="13.7946">n</text>
				<text transform="matrix(1.748456e-007 -1 1 1.748456e-007 30.5318 69.7344)" font-family="'Calibri-Bold'" font-size="13.7946">s</text>
			</g>
		</g>
	</g>
</g>
<g>
	<g>
		<defs>
			<rect id="SVGID_155_" x="0" y="-7" width="501.756" height="291.348"/>
		</defs>
		<clipPath id="SVGID_156_">
			<use xlink:href="#SVGID_155_"  overflow="visible"/>
		</clipPath>
		<g clip-path="url(#SVGID_156_)">
			<text transform="matrix(1 0 0 1 109.7582 17.9233)" font-family="'Calibri-Bold'" font-size="15.2903">A</text>
			<text transform="matrix(1 0 0 1 119.0542 17.9233)" font-family="'Calibri-Bold'" font-size="15.2903">v</text>
			<text transform="matrix(1 0 0 1 126.3652 17.9233)" font-family="'Calibri-Bold'" font-size="15.2903">e</text>
			<text transform="matrix(1 0 0 1 134.0162 17.9233)" font-family="'Calibri-Bold'" font-size="15.2903">r</text>
			<text transform="matrix(1 0 0 1 139.4982 17.9233)" font-family="'Calibri-Bold'" font-size="15.2903">a</text>
			<text transform="matrix(1 0 0 1 146.9852 17.9233)" font-family="'Calibri-Bold'" font-size="15.2903">g</text>
			<text transform="matrix(1 0 0 1 154.2952 17.9233)" font-family="'Calibri-Bold'" font-size="15.2903">e</text>
			<text transform="matrix(1 0 0 1 161.9462 17.9233)" font-family="'Calibri-Bold'" font-size="15.2903"> </text>
			<text transform="matrix(1 0 0 1 165.1132 17.9233)" font-family="'Calibri-Bold'" font-size="15.2903">R</text>
			<text transform="matrix(1 0 0 1 173.7522 17.9233)" font-family="'Calibri-Bold'" font-size="15.2903">e</text>
			<text transform="matrix(1 0 0 1 181.4042 17.9233)" font-family="'Calibri-Bold'" font-size="15.2903">s</text>
			<text transform="matrix(1 0 0 1 187.5492 17.9233)" font-family="'Calibri-Bold'" font-size="15.2903">i</text>
			<text transform="matrix(1 0 0 1 191.3652 17.9233)" font-family="'Calibri-Bold'" font-size="15.2903">d</text>
			<text transform="matrix(1 0 0 1 199.5092 17.9233)" font-family="'Calibri-Bold'" font-size="15.2903">e</text>
			<text transform="matrix(1 0 0 1 207.1612 17.9233)" font-family="'Calibri-Bold'" font-size="15.2903">n</text>
			<text transform="matrix(1 0 0 1 215.3052 17.9233)" font-family="'Calibri-Bold'" font-size="15.2903">t</text>
			<text transform="matrix(1 0 0 1 220.6212 17.9233)" font-family="'Calibri-Bold'" font-size="15.2903">a</text>
			<text transform="matrix(1 0 0 1 228.1082 17.9233)" font-family="'Calibri-Bold'" font-size="15.2903">l</text>
			<text transform="matrix(1 0 0 1 231.9252 17.9233)" font-family="'Calibri-Bold'" font-size="15.2903"> </text>
			<text transform="matrix(1 0 0 1 235.2592 17.9233)" font-family="'Calibri-Bold'" font-size="15.2903">P</text>
			<text transform="matrix(1 0 0 1 243.3972 17.9233)" font-family="'Calibri-Bold'" font-size="15.2903">r</text>
			<text transform="matrix(1 0 0 1 248.8782 17.9233)" font-family="'Calibri-Bold'" font-size="15.2903">op</text>
			<text transform="matrix(1 0 0 1 265.1812 17.9233)" font-family="'Calibri-Bold'" font-size="15.2903">e</text>
			<text transform="matrix(1 0 0 1 272.8322 17.9233)" font-family="'Calibri-Bold'" font-size="15.2903">r</text>
			<text transform="matrix(1 0 0 1 278.3142 17.9233)" font-family="'Calibri-Bold'" font-size="15.2903">t</text>
			<text transform="matrix(1 0 0 1 283.6302 17.9233)" font-family="'Calibri-Bold'" font-size="15.2903">y</text>
			<text transform="matrix(1 0 0 1 290.9332 17.9233)" font-family="'Calibri-Bold'" font-size="15.2903"> </text>
			<text transform="matrix(1 0 0 1 294.2672 17.9233)" font-family="'Calibri-Bold'" font-size="15.2903">P</text>
			<text transform="matrix(1 0 0 1 302.4052 17.9233)" font-family="'Calibri-Bold'" font-size="15.2903">r</text>
			<text transform="matrix(1 0 0 1 307.8862 17.9233)" font-family="'Calibri-Bold'" font-size="15.2903">i</text>
			<text transform="matrix(1 0 0 1 311.7032 17.9233)" font-family="'Calibri-Bold'" font-size="15.2903">c</text>
			<text transform="matrix(1 0 0 1 318.1772 17.9233)" font-family="'Calibri-Bold'" font-size="15.2903">e</text>
			<text transform="matrix(1 0 0 1 325.8292 17.9233)" font-family="'Calibri-Bold'" font-size="15.2903"> </text>
			<text transform="matrix(1 0 0 1 328.9952 17.9233)" font-family="'Calibri-Bold'" font-size="15.2903">(</text>
			<text transform="matrix(1 0 0 1 333.8042 17.9233)" font-family="'Calibri-Bold'" font-size="15.2903">P</text>
			<text transform="matrix(1 0 0 1 341.9432 17.9233)" font-family="'Calibri-Bold'" font-size="15.2903">e</text>
			<text transform="matrix(1 0 0 1 349.5942 17.9233)" font-family="'Calibri-Bold'" font-size="15.2903">r</text>
			<text transform="matrix(1 0 0 1 355.0752 17.9233)" font-family="'Calibri-Bold'" font-size="15.2903"> </text>
			<text transform="matrix(1 0 0 1 358.2412 17.9233)" font-family="'Calibri-Bold'" font-size="15.2903">A</text>
			<text transform="matrix(1 0 0 1 367.5372 17.9233)" font-family="'Calibri-Bold'" font-size="15.2903">c</text>
			<text transform="matrix(1 0 0 1 374.0122 17.9233)" font-family="'Calibri-Bold'" font-size="15.2903">r</text>
			<text transform="matrix(1 0 0 1 379.4932 17.9233)" font-family="'Calibri-Bold'" font-size="15.2903">e</text>
			<text transform="matrix(1 0 0 1 387.1452 17.9233)" font-family="'Calibri-Bold'" font-size="15.2903">)</text>
			<text transform="matrix(1 0 0 1 391.9542 17.9233)" font-family="'Calibri-Bold'" font-size="15.2903"> </text>
		</g>
	</g>
</g>
<polygon fill="none" points="0.166,-21.834 501.756,-21.834 501.756,269.348 0.166,269.348 "/>
</svg>
